<svg height="512" viewBox="0 0 64 64" width="512" xmlns="http://www.w3.org/2000/svg"><g id="Smart_bank" data-name="Smart bank"><path d="m6 24v5h26v-14z" fill="#2488ff"/><path d="m58 24-26-9v14h26z" fill="#57a4ff"/><path d="m16 35v-3h-8v3h2 4z" fill="#ff9811"/><path d="m10 35h4v18h-4z" fill="#ffdaaa"/><path d="m56 35v-3h-8v3h2 4z" fill="#ff9811"/><path d="m50 35h4v18h-4z" fill="#ffdaaa"/><path d="m27 35v-3h-8v3h2 4z" fill="#ff9811"/><path d="m21 35h4v18h-4z" fill="#ffdaaa"/><path d="m45 35v-3h-8v3h2 4z" fill="#ff9811"/><path d="m39 35h4v18h-4z" fill="#ffdaaa"/><path d="m9.394 26h22.606v-7.825z" fill="#e52b49"/><path d="m32 18.175v7.825h22.606z" fill="#ff3051"/><path d="m32 53h-7-4-7-4-4v4h26z" fill="#57a4ff"/><path d="m58 57v-4h-4-4-7-4-7v4z" fill="#9bc9ff"/><path d="m6 57h-3v4h29v-4z" fill="#2488ff"/><path d="m61 57h-3-26v4h29z" fill="#57a4ff"/><path d="m23.172 7.171a1 1 0 0 1 -.672-1.739l.27-.245a14.373 14.373 0 0 1 18.43-.029l.3.273a1 1 0 1 1 -1.346 1.478l-.268-.244a12.357 12.357 0 0 0 -15.805.029l-.236.217a1 1 0 0 1 -.673.26z"/><path d="m35.437 13.071a1 1 0 0 1 -.639-.232 4.372 4.372 0 0 0 -5.6 0 1 1 0 1 1 -1.28-1.536 6.367 6.367 0 0 1 8.156 0 1 1 0 0 1 -.641 1.768z"/><path d="m58 30h-52a1 1 0 0 1 -1-1v-5a1 1 0 0 1 .673-.945l26-9a1 1 0 0 1 .654 0l26 9a1 1 0 0 1 .673.945v5a1 1 0 0 1 -1 1zm-51-2h50v-3.288l-25-8.654-25 8.654z"/><path d="m54.606 27h-45.212a1 1 0 0 1 -.328-1.945l22.607-7.825a1 1 0 0 1 .654 0l22.607 7.825a1 1 0 0 1 -.328 1.945zm-39.267-2h33.322l-16.661-5.767z"/><path d="m61 56h-2v-3a1 1 0 0 0 -1-1h-3v-16h1a1 1 0 0 0 1-1v-3a1 1 0 0 0 -1-1h-8a1 1 0 0 0 -1 1v3a1 1 0 0 0 1 1h1v16h-5v-16h1a1 1 0 0 0 1-1v-3a1 1 0 0 0 -1-1h-8a1 1 0 0 0 -1 1v3a1 1 0 0 0 1 1h1v16h-12v-16h1a1 1 0 0 0 1-1v-3a1 1 0 0 0 -1-1h-8a1 1 0 0 0 -1 1v3a1 1 0 0 0 1 1h1v16h-5v-16h1a1 1 0 0 0 1-1v-3a1 1 0 0 0 -1-1h-8a1 1 0 0 0 -1 1v3a1 1 0 0 0 1 1h1v16h-3a1 1 0 0 0 -1 1v3h-2a1 1 0 0 0 -1 1v4a1 1 0 0 0 1 1h58a1 1 0 0 0 1-1v-4a1 1 0 0 0 -1-1zm-12-23h6v1h-6zm2 3h2v16h-2zm-13-3h6v1h-6zm2 3h2v16h-2zm-20-3h6v1h-6zm2 3h2v16h-2zm-13-3h6v1h-6zm2 3h2v16h-2zm-4 18h50v2h-50zm53 6h-56v-2h56z"/><path d="m32 46a1 1 0 0 1 -1-1 1 1 0 0 0 -2 0 3 3 0 0 0 2 2.816v1.184a1 1 0 0 0 2 0v-1.184a2.993 2.993 0 0 0 -1-5.816 1 1 0 1 1 1-1 1 1 0 0 0 2 0 3 3 0 0 0 -2-2.816v-1.184a1 1 0 0 0 -2 0v1.184a2.993 2.993 0 0 0 1 5.816 1 1 0 0 1 0 2z"/><path d="m38 10a.991.991 0 0 1 -.6-.2 8.383 8.383 0 0 0 -10.758-.033 1 1 0 0 1 -1.349-1.474 10.384 10.384 0 0 1 13.346-.063 1 1 0 0 1 -.639 1.77z"/></g></svg>